<mxfile host="app.diagrams.net" modified="2024-05-08T18:38:51.723Z" agent="Mozilla/5.0 (Windows NT 10.0; Win64; x64; rv:125.0) Gecko/20100101 Firefox/125.0" etag="H-RhQEHKaccuP74zW6sT" version="24.3.1" type="device">
  <diagram name="Page-1" id="kpCUjtEi7nMDaQPn7GTy">
    <mxGraphModel dx="2213" dy="-206" grid="1" gridSize="10" guides="1" tooltips="1" connect="1" arrows="1" fold="1" page="1" pageScale="1" pageWidth="850" pageHeight="1100" math="0" shadow="0">
      <root>
        <mxCell id="0" />
        <mxCell id="1" parent="0" />
        <mxCell id="ws3EkPWd5Y2wLgNf-SEe-2" value="" style="verticalLabelPosition=bottom;verticalAlign=top;html=1;shape=mxgraph.basic.rect;fillColor2=none;strokeWidth=1;size=20;indent=0;container=0;flipV=1;flipH=1;" vertex="1" parent="1">
          <mxGeometry x="30" y="1340" width="850" height="40" as="geometry" />
        </mxCell>
        <mxCell id="ws3EkPWd5Y2wLgNf-SEe-3" value="" style="line;strokeWidth=2;direction=south;html=1;" vertex="1" parent="1">
          <mxGeometry x="105" y="1340" width="10" height="40" as="geometry" />
        </mxCell>
        <mxCell id="ws3EkPWd5Y2wLgNf-SEe-4" value="&lt;u&gt;&lt;b&gt;UserID&lt;/b&gt;&lt;/u&gt;" style="text;html=1;align=center;verticalAlign=middle;resizable=0;points=[];autosize=1;strokeColor=none;fillColor=none;" vertex="1" parent="1">
          <mxGeometry x="40" y="1345" width="60" height="30" as="geometry" />
        </mxCell>
        <mxCell id="ws3EkPWd5Y2wLgNf-SEe-5" value="" style="line;strokeWidth=2;direction=south;html=1;" vertex="1" parent="1">
          <mxGeometry x="205" y="1340" width="10" height="40" as="geometry" />
        </mxCell>
        <mxCell id="ws3EkPWd5Y2wLgNf-SEe-6" value="Username" style="text;html=1;align=center;verticalAlign=middle;resizable=0;points=[];autosize=1;strokeColor=none;fillColor=none;" vertex="1" parent="1">
          <mxGeometry x="115" y="1345" width="80" height="30" as="geometry" />
        </mxCell>
        <mxCell id="ws3EkPWd5Y2wLgNf-SEe-7" value="" style="line;strokeWidth=2;direction=south;html=1;" vertex="1" parent="1">
          <mxGeometry x="320" y="1340" width="10" height="40" as="geometry" />
        </mxCell>
        <mxCell id="ws3EkPWd5Y2wLgNf-SEe-8" value="FirstName" style="text;html=1;align=center;verticalAlign=middle;resizable=0;points=[];autosize=1;strokeColor=none;fillColor=none;" vertex="1" parent="1">
          <mxGeometry x="230" y="1345" width="80" height="30" as="geometry" />
        </mxCell>
        <mxCell id="ws3EkPWd5Y2wLgNf-SEe-9" value="" style="line;strokeWidth=2;direction=south;html=1;" vertex="1" parent="1">
          <mxGeometry x="445" y="1340" width="10" height="40" as="geometry" />
        </mxCell>
        <mxCell id="ws3EkPWd5Y2wLgNf-SEe-10" value="LastName" style="text;html=1;align=center;verticalAlign=middle;resizable=0;points=[];autosize=1;strokeColor=none;fillColor=none;" vertex="1" parent="1">
          <mxGeometry x="345" y="1345" width="80" height="30" as="geometry" />
        </mxCell>
        <mxCell id="ws3EkPWd5Y2wLgNf-SEe-11" value="" style="line;strokeWidth=2;direction=south;html=1;" vertex="1" parent="1">
          <mxGeometry x="550" y="1340" width="10" height="40" as="geometry" />
        </mxCell>
        <mxCell id="ws3EkPWd5Y2wLgNf-SEe-12" value="E-mail" style="text;html=1;align=center;verticalAlign=middle;resizable=0;points=[];autosize=1;strokeColor=none;fillColor=none;" vertex="1" parent="1">
          <mxGeometry x="475" y="1345" width="60" height="30" as="geometry" />
        </mxCell>
        <mxCell id="ws3EkPWd5Y2wLgNf-SEe-13" value="" style="line;strokeWidth=2;direction=south;html=1;" vertex="1" parent="1">
          <mxGeometry x="680" y="1340" width="10" height="40" as="geometry" />
        </mxCell>
        <mxCell id="ws3EkPWd5Y2wLgNf-SEe-14" value="Password" style="text;html=1;align=center;verticalAlign=middle;resizable=0;points=[];autosize=1;strokeColor=none;fillColor=none;" vertex="1" parent="1">
          <mxGeometry x="580" y="1345" width="80" height="30" as="geometry" />
        </mxCell>
        <mxCell id="ws3EkPWd5Y2wLgNf-SEe-15" value="BDate" style="text;html=1;align=center;verticalAlign=middle;resizable=0;points=[];autosize=1;strokeColor=none;fillColor=none;" vertex="1" parent="1">
          <mxGeometry x="690" y="1345" width="60" height="30" as="geometry" />
        </mxCell>
        <mxCell id="ws3EkPWd5Y2wLgNf-SEe-16" value="&lt;b&gt;&lt;font style=&quot;font-size: 14px;&quot;&gt;User&lt;/font&gt;&lt;/b&gt;" style="text;html=1;align=center;verticalAlign=middle;resizable=0;points=[];autosize=1;strokeColor=none;fillColor=none;" vertex="1" parent="1">
          <mxGeometry x="30" y="1310" width="50" height="30" as="geometry" />
        </mxCell>
        <mxCell id="ws3EkPWd5Y2wLgNf-SEe-17" value="" style="verticalLabelPosition=bottom;verticalAlign=top;html=1;shape=mxgraph.basic.rect;fillColor2=none;strokeWidth=1;size=20;indent=0;container=0;flipV=1;flipH=1;" vertex="1" parent="1">
          <mxGeometry x="60" y="1420" width="615" height="40" as="geometry" />
        </mxCell>
        <mxCell id="ws3EkPWd5Y2wLgNf-SEe-18" value="&lt;b&gt;Transaction&lt;/b&gt;" style="text;html=1;align=center;verticalAlign=middle;resizable=0;points=[];autosize=1;strokeColor=none;fillColor=none;" vertex="1" parent="1">
          <mxGeometry x="60" y="1390" width="90" height="30" as="geometry" />
        </mxCell>
        <mxCell id="ws3EkPWd5Y2wLgNf-SEe-19" value="" style="line;strokeWidth=2;direction=south;html=1;" vertex="1" parent="1">
          <mxGeometry x="175" y="1420" width="10" height="40" as="geometry" />
        </mxCell>
        <mxCell id="ws3EkPWd5Y2wLgNf-SEe-20" value="&lt;u&gt;&lt;b&gt;TransactionID&lt;/b&gt;&lt;/u&gt;" style="text;html=1;align=center;verticalAlign=middle;resizable=0;points=[];autosize=1;strokeColor=none;fillColor=none;" vertex="1" parent="1">
          <mxGeometry x="70" y="1425" width="100" height="30" as="geometry" />
        </mxCell>
        <mxCell id="ws3EkPWd5Y2wLgNf-SEe-21" value="" style="line;strokeWidth=2;direction=south;html=1;" vertex="1" parent="1">
          <mxGeometry x="245" y="1420" width="10" height="40" as="geometry" />
        </mxCell>
        <mxCell id="ws3EkPWd5Y2wLgNf-SEe-22" value="BotID" style="text;html=1;align=center;verticalAlign=middle;resizable=0;points=[];autosize=1;strokeColor=none;fillColor=none;" vertex="1" parent="1">
          <mxGeometry x="190" y="1425" width="50" height="30" as="geometry" />
        </mxCell>
        <mxCell id="ws3EkPWd5Y2wLgNf-SEe-23" value="Date" style="text;html=1;align=center;verticalAlign=middle;resizable=0;points=[];autosize=1;strokeColor=none;fillColor=none;" vertex="1" parent="1">
          <mxGeometry x="265" y="1425" width="50" height="30" as="geometry" />
        </mxCell>
        <mxCell id="ws3EkPWd5Y2wLgNf-SEe-24" value="" style="line;strokeWidth=2;direction=south;html=1;" vertex="1" parent="1">
          <mxGeometry x="335" y="1420" width="10" height="40" as="geometry" />
        </mxCell>
        <mxCell id="ws3EkPWd5Y2wLgNf-SEe-25" value="Quantity" style="text;html=1;align=center;verticalAlign=middle;resizable=0;points=[];autosize=1;strokeColor=none;fillColor=none;" vertex="1" parent="1">
          <mxGeometry x="370" y="1425" width="70" height="30" as="geometry" />
        </mxCell>
        <mxCell id="ws3EkPWd5Y2wLgNf-SEe-26" value="" style="line;strokeWidth=2;direction=south;html=1;" vertex="1" parent="1">
          <mxGeometry x="460" y="1420" width="10" height="40" as="geometry" />
        </mxCell>
        <mxCell id="ws3EkPWd5Y2wLgNf-SEe-27" value="CompanyName" style="text;html=1;align=center;verticalAlign=middle;resizable=0;points=[];autosize=1;strokeColor=none;fillColor=none;" vertex="1" parent="1">
          <mxGeometry x="550" y="1425" width="110" height="30" as="geometry" />
        </mxCell>
        <mxCell id="ws3EkPWd5Y2wLgNf-SEe-28" value="" style="verticalLabelPosition=bottom;verticalAlign=top;html=1;shape=mxgraph.basic.rect;fillColor2=none;strokeWidth=1;size=20;indent=0;container=0;flipV=1;flipH=1;" vertex="1" parent="1">
          <mxGeometry x="65" y="1650" width="575" height="40" as="geometry" />
        </mxCell>
        <mxCell id="ws3EkPWd5Y2wLgNf-SEe-29" value="&lt;b&gt;Stock&lt;/b&gt;" style="text;html=1;align=center;verticalAlign=middle;resizable=0;points=[];autosize=1;strokeColor=none;fillColor=none;" vertex="1" parent="1">
          <mxGeometry x="60" y="1620" width="60" height="30" as="geometry" />
        </mxCell>
        <mxCell id="ws3EkPWd5Y2wLgNf-SEe-30" value="" style="line;strokeWidth=2;direction=south;html=1;" vertex="1" parent="1">
          <mxGeometry x="160" y="1650" width="10" height="40" as="geometry" />
        </mxCell>
        <mxCell id="ws3EkPWd5Y2wLgNf-SEe-31" value="&lt;b&gt;&lt;u&gt;StockID&lt;/u&gt;&lt;/b&gt;" style="text;html=1;align=center;verticalAlign=middle;resizable=0;points=[];autosize=1;strokeColor=none;fillColor=none;" vertex="1" parent="1">
          <mxGeometry x="80" y="1655" width="70" height="30" as="geometry" />
        </mxCell>
        <mxCell id="ws3EkPWd5Y2wLgNf-SEe-32" value="" style="line;strokeWidth=2;direction=south;html=1;" vertex="1" parent="1">
          <mxGeometry x="245" y="1650" width="10" height="40" as="geometry" />
        </mxCell>
        <mxCell id="ws3EkPWd5Y2wLgNf-SEe-33" value="ProtfolioID" style="text;html=1;align=center;verticalAlign=middle;resizable=0;points=[];autosize=1;strokeColor=none;fillColor=none;" vertex="1" parent="1">
          <mxGeometry x="165" y="1655" width="80" height="30" as="geometry" />
        </mxCell>
        <mxCell id="ws3EkPWd5Y2wLgNf-SEe-34" value="" style="line;strokeWidth=2;direction=south;html=1;" vertex="1" parent="1">
          <mxGeometry x="365" y="1650" width="10" height="40" as="geometry" />
        </mxCell>
        <mxCell id="ws3EkPWd5Y2wLgNf-SEe-35" value="TransactionID" style="text;html=1;align=center;verticalAlign=middle;resizable=0;points=[];autosize=1;strokeColor=none;fillColor=none;" vertex="1" parent="1">
          <mxGeometry x="260" y="1655" width="100" height="30" as="geometry" />
        </mxCell>
        <mxCell id="ws3EkPWd5Y2wLgNf-SEe-36" value="" style="line;strokeWidth=2;direction=south;html=1;" vertex="1" parent="1">
          <mxGeometry x="435" y="1650" width="10" height="40" as="geometry" />
        </mxCell>
        <mxCell id="ws3EkPWd5Y2wLgNf-SEe-37" value="Price" style="text;html=1;align=center;verticalAlign=middle;resizable=0;points=[];autosize=1;strokeColor=none;fillColor=none;" vertex="1" parent="1">
          <mxGeometry x="385" y="1655" width="50" height="30" as="geometry" />
        </mxCell>
        <mxCell id="ws3EkPWd5Y2wLgNf-SEe-38" value="Symbol" style="text;html=1;align=center;verticalAlign=middle;resizable=0;points=[];autosize=1;strokeColor=none;fillColor=none;" vertex="1" parent="1">
          <mxGeometry x="445" y="1655" width="60" height="30" as="geometry" />
        </mxCell>
        <mxCell id="ws3EkPWd5Y2wLgNf-SEe-39" value="" style="verticalLabelPosition=bottom;verticalAlign=top;html=1;shape=mxgraph.basic.rect;fillColor2=none;strokeWidth=1;size=20;indent=0;container=0;flipV=1;flipH=1;" vertex="1" parent="1">
          <mxGeometry x="60" y="1540" width="550" height="40" as="geometry" />
        </mxCell>
        <mxCell id="ws3EkPWd5Y2wLgNf-SEe-40" value="&lt;b&gt;Portfolio&lt;/b&gt;" style="text;html=1;align=center;verticalAlign=middle;resizable=0;points=[];autosize=1;strokeColor=none;fillColor=none;" vertex="1" parent="1">
          <mxGeometry x="60" y="1510" width="70" height="30" as="geometry" />
        </mxCell>
        <mxCell id="ws3EkPWd5Y2wLgNf-SEe-41" value="" style="line;strokeWidth=2;direction=south;html=1;" vertex="1" parent="1">
          <mxGeometry x="160" y="1540" width="10" height="40" as="geometry" />
        </mxCell>
        <mxCell id="ws3EkPWd5Y2wLgNf-SEe-42" value="&lt;b&gt;&lt;u&gt;PortfolioID&lt;/u&gt;&lt;/b&gt;" style="text;html=1;align=center;verticalAlign=middle;resizable=0;points=[];autosize=1;strokeColor=none;fillColor=none;" vertex="1" parent="1">
          <mxGeometry x="65" y="1545" width="80" height="30" as="geometry" />
        </mxCell>
        <mxCell id="ws3EkPWd5Y2wLgNf-SEe-43" value="" style="line;strokeWidth=2;direction=south;html=1;" vertex="1" parent="1">
          <mxGeometry x="235" y="1540" width="10" height="40" as="geometry" />
        </mxCell>
        <mxCell id="ws3EkPWd5Y2wLgNf-SEe-44" value="UserID" style="text;html=1;align=center;verticalAlign=middle;resizable=0;points=[];autosize=1;strokeColor=none;fillColor=none;" vertex="1" parent="1">
          <mxGeometry x="170" y="1545" width="60" height="30" as="geometry" />
        </mxCell>
        <mxCell id="ws3EkPWd5Y2wLgNf-SEe-45" value="" style="line;strokeWidth=2;direction=south;html=1;" vertex="1" parent="1">
          <mxGeometry x="320" y="1540" width="10" height="40" as="geometry" />
        </mxCell>
        <mxCell id="ws3EkPWd5Y2wLgNf-SEe-46" value="Quantity" style="text;html=1;align=center;verticalAlign=middle;resizable=0;points=[];autosize=1;strokeColor=none;fillColor=none;" vertex="1" parent="1">
          <mxGeometry x="245" y="1545" width="70" height="30" as="geometry" />
        </mxCell>
        <mxCell id="ws3EkPWd5Y2wLgNf-SEe-47" value="" style="line;strokeWidth=2;direction=south;html=1;" vertex="1" parent="1">
          <mxGeometry x="435" y="1540" width="10" height="40" as="geometry" />
        </mxCell>
        <mxCell id="ws3EkPWd5Y2wLgNf-SEe-48" value="CreatedDate" style="text;html=1;align=center;verticalAlign=middle;resizable=0;points=[];autosize=1;strokeColor=none;fillColor=none;" vertex="1" parent="1">
          <mxGeometry x="340" y="1545" width="90" height="30" as="geometry" />
        </mxCell>
        <mxCell id="ws3EkPWd5Y2wLgNf-SEe-49" value="Balance" style="text;html=1;align=center;verticalAlign=middle;resizable=0;points=[];autosize=1;strokeColor=none;fillColor=none;" vertex="1" parent="1">
          <mxGeometry x="445" y="1545" width="70" height="30" as="geometry" />
        </mxCell>
        <mxCell id="ws3EkPWd5Y2wLgNf-SEe-50" value="" style="endArrow=classic;html=1;rounded=0;edgeStyle=orthogonalEdgeStyle;entryX=1.001;entryY=-0.009;entryDx=0;entryDy=0;entryPerimeter=0;" edge="1" parent="1" target="ws3EkPWd5Y2wLgNf-SEe-2">
          <mxGeometry width="50" height="50" relative="1" as="geometry">
            <mxPoint x="200" y="1580" as="sourcePoint" />
            <mxPoint x="29.23000000000012" y="1361" as="targetPoint" />
            <Array as="points">
              <mxPoint x="200" y="1600" />
              <mxPoint x="-90" y="1600" />
              <mxPoint x="-90" y="1380" />
              <mxPoint x="29" y="1380" />
            </Array>
          </mxGeometry>
        </mxCell>
        <mxCell id="ws3EkPWd5Y2wLgNf-SEe-51" value="" style="endArrow=classic;html=1;rounded=0;edgeStyle=orthogonalEdgeStyle;exitX=0.759;exitY=1;exitDx=0;exitDy=0;exitPerimeter=0;" edge="1" parent="1" source="ws3EkPWd5Y2wLgNf-SEe-28">
          <mxGeometry width="50" height="50" relative="1" as="geometry">
            <mxPoint x="210.27000000000012" y="1640.6" as="sourcePoint" />
            <mxPoint x="139" y="1539" as="targetPoint" />
            <Array as="points">
              <mxPoint x="210" y="1650" />
              <mxPoint x="210" y="1610" />
              <mxPoint x="660" y="1610" />
              <mxPoint x="660" y="1520" />
              <mxPoint x="139" y="1520" />
            </Array>
          </mxGeometry>
        </mxCell>
        <mxCell id="ws3EkPWd5Y2wLgNf-SEe-52" value="Price" style="text;html=1;align=center;verticalAlign=middle;resizable=0;points=[];autosize=1;strokeColor=none;fillColor=none;" vertex="1" parent="1">
          <mxGeometry x="485" y="1425" width="50" height="30" as="geometry" />
        </mxCell>
        <mxCell id="ws3EkPWd5Y2wLgNf-SEe-53" value="" style="line;strokeWidth=2;direction=south;html=1;" vertex="1" parent="1">
          <mxGeometry x="760" y="1340" width="10" height="40" as="geometry" />
        </mxCell>
        <mxCell id="ws3EkPWd5Y2wLgNf-SEe-54" value="PhoneNumber" style="text;html=1;align=center;verticalAlign=middle;resizable=0;points=[];autosize=1;strokeColor=none;fillColor=none;" vertex="1" parent="1">
          <mxGeometry x="770" y="1345" width="100" height="30" as="geometry" />
        </mxCell>
        <mxCell id="ws3EkPWd5Y2wLgNf-SEe-55" value="" style="line;strokeWidth=2;direction=south;html=1;" vertex="1" parent="1">
          <mxGeometry x="520" y="1540" width="10" height="40" as="geometry" />
        </mxCell>
        <mxCell id="ws3EkPWd5Y2wLgNf-SEe-56" value="CurrentDate" style="text;html=1;align=center;verticalAlign=middle;resizable=0;points=[];autosize=1;strokeColor=none;fillColor=none;" vertex="1" parent="1">
          <mxGeometry x="520" y="1545" width="90" height="30" as="geometry" />
        </mxCell>
        <mxCell id="ws3EkPWd5Y2wLgNf-SEe-57" value="" style="line;strokeWidth=2;direction=south;html=1;" vertex="1" parent="1">
          <mxGeometry x="540" y="1420" width="10" height="40" as="geometry" />
        </mxCell>
        <mxCell id="ws3EkPWd5Y2wLgNf-SEe-58" value="" style="line;strokeWidth=2;direction=south;html=1;" vertex="1" parent="1">
          <mxGeometry x="515" y="1650" width="10" height="40" as="geometry" />
        </mxCell>
        <mxCell id="ws3EkPWd5Y2wLgNf-SEe-59" value="CompanyName" style="text;html=1;align=center;verticalAlign=middle;resizable=0;points=[];autosize=1;strokeColor=none;fillColor=none;" vertex="1" parent="1">
          <mxGeometry x="525" y="1655" width="110" height="30" as="geometry" />
        </mxCell>
        <mxCell id="ws3EkPWd5Y2wLgNf-SEe-60" value="" style="endArrow=classic;html=1;rounded=0;edgeStyle=orthogonalEdgeStyle;exitX=0.557;exitY=1.02;exitDx=0;exitDy=0;exitPerimeter=0;" edge="1" parent="1" source="ws3EkPWd5Y2wLgNf-SEe-28">
          <mxGeometry width="50" height="50" relative="1" as="geometry">
            <mxPoint x="320" y="1630" as="sourcePoint" />
            <mxPoint x="161" y="1420" as="targetPoint" />
            <Array as="points">
              <mxPoint x="320" y="1631" />
              <mxPoint x="700" y="1631" />
              <mxPoint x="700" y="1410" />
              <mxPoint x="161" y="1410" />
            </Array>
          </mxGeometry>
        </mxCell>
        <mxCell id="ws3EkPWd5Y2wLgNf-SEe-61" value="" style="verticalLabelPosition=bottom;verticalAlign=top;html=1;shape=mxgraph.basic.rect;fillColor2=none;strokeWidth=1;size=20;indent=0;container=0;flipV=1;flipH=1;" vertex="1" parent="1">
          <mxGeometry x="65" y="1760" width="385" height="40" as="geometry" />
        </mxCell>
        <mxCell id="ws3EkPWd5Y2wLgNf-SEe-62" value="&lt;b&gt;Suggestion&lt;/b&gt;" style="text;html=1;align=center;verticalAlign=middle;resizable=0;points=[];autosize=1;strokeColor=none;fillColor=none;" vertex="1" parent="1">
          <mxGeometry x="65" y="1730" width="90" height="30" as="geometry" />
        </mxCell>
        <mxCell id="ws3EkPWd5Y2wLgNf-SEe-63" value="&lt;b&gt;&lt;u&gt;SuggestionID&lt;/u&gt;&lt;/b&gt;" style="text;html=1;align=center;verticalAlign=middle;resizable=0;points=[];autosize=1;strokeColor=none;fillColor=none;" vertex="1" parent="1">
          <mxGeometry x="60" y="1765" width="100" height="30" as="geometry" />
        </mxCell>
        <mxCell id="ws3EkPWd5Y2wLgNf-SEe-64" value="" style="line;strokeWidth=2;direction=south;html=1;" vertex="1" parent="1">
          <mxGeometry x="155" y="1760" width="10" height="40" as="geometry" />
        </mxCell>
        <mxCell id="ws3EkPWd5Y2wLgNf-SEe-65" value="" style="line;strokeWidth=2;direction=south;html=1;" vertex="1" parent="1">
          <mxGeometry x="225" y="1760" width="10" height="40" as="geometry" />
        </mxCell>
        <mxCell id="ws3EkPWd5Y2wLgNf-SEe-66" value="BotID" style="text;html=1;align=center;verticalAlign=middle;resizable=0;points=[];autosize=1;strokeColor=none;fillColor=none;" vertex="1" parent="1">
          <mxGeometry x="175" y="1765" width="50" height="30" as="geometry" />
        </mxCell>
        <mxCell id="ws3EkPWd5Y2wLgNf-SEe-67" value="SuggestionType" style="text;html=1;align=center;verticalAlign=middle;resizable=0;points=[];autosize=1;strokeColor=none;fillColor=none;" vertex="1" parent="1">
          <mxGeometry x="235" y="1765" width="110" height="30" as="geometry" />
        </mxCell>
        <mxCell id="ws3EkPWd5Y2wLgNf-SEe-68" value="" style="line;strokeWidth=2;direction=south;html=1;" vertex="1" parent="1">
          <mxGeometry x="345" y="1760" width="10" height="40" as="geometry" />
        </mxCell>
        <mxCell id="ws3EkPWd5Y2wLgNf-SEe-69" value="Answer" style="text;html=1;align=center;verticalAlign=middle;resizable=0;points=[];autosize=1;strokeColor=none;fillColor=none;" vertex="1" parent="1">
          <mxGeometry x="370" y="1765" width="60" height="30" as="geometry" />
        </mxCell>
        <mxCell id="ws3EkPWd5Y2wLgNf-SEe-70" value="" style="verticalLabelPosition=bottom;verticalAlign=top;html=1;shape=mxgraph.basic.rect;fillColor2=none;strokeWidth=1;size=20;indent=0;container=0;flipV=1;flipH=1;" vertex="1" parent="1">
          <mxGeometry x="65" y="1850" width="395" height="40" as="geometry" />
        </mxCell>
        <mxCell id="ws3EkPWd5Y2wLgNf-SEe-71" value="&lt;b&gt;Bot&lt;/b&gt;" style="text;html=1;align=center;verticalAlign=middle;resizable=0;points=[];autosize=1;strokeColor=none;fillColor=none;" vertex="1" parent="1">
          <mxGeometry x="70" y="1820" width="40" height="30" as="geometry" />
        </mxCell>
        <mxCell id="ws3EkPWd5Y2wLgNf-SEe-72" value="&lt;b&gt;&lt;u&gt;BotID&lt;/u&gt;&lt;/b&gt;" style="text;html=1;align=center;verticalAlign=middle;resizable=0;points=[];autosize=1;strokeColor=none;fillColor=none;" vertex="1" parent="1">
          <mxGeometry x="65" y="1855" width="60" height="30" as="geometry" />
        </mxCell>
        <mxCell id="ws3EkPWd5Y2wLgNf-SEe-73" value="" style="line;strokeWidth=2;direction=south;html=1;" vertex="1" parent="1">
          <mxGeometry x="115" y="1850" width="10" height="40" as="geometry" />
        </mxCell>
        <mxCell id="ws3EkPWd5Y2wLgNf-SEe-74" value="User&lt;i&gt;ID&lt;/i&gt;" style="text;html=1;align=center;verticalAlign=middle;resizable=0;points=[];autosize=1;strokeColor=none;fillColor=none;" vertex="1" parent="1">
          <mxGeometry x="125" y="1855" width="60" height="30" as="geometry" />
        </mxCell>
        <mxCell id="ws3EkPWd5Y2wLgNf-SEe-75" value="" style="line;strokeWidth=2;direction=south;html=1;" vertex="1" parent="1">
          <mxGeometry x="185" y="1850" width="10" height="40" as="geometry" />
        </mxCell>
        <mxCell id="ws3EkPWd5Y2wLgNf-SEe-76" value="SelectedStocks" style="text;html=1;align=center;verticalAlign=middle;resizable=0;points=[];autosize=1;strokeColor=none;fillColor=none;" vertex="1" parent="1">
          <mxGeometry x="190" y="1855" width="110" height="30" as="geometry" />
        </mxCell>
        <mxCell id="ws3EkPWd5Y2wLgNf-SEe-77" value="" style="line;strokeWidth=2;direction=south;html=1;" vertex="1" parent="1">
          <mxGeometry x="295" y="1850" width="10" height="40" as="geometry" />
        </mxCell>
        <mxCell id="ws3EkPWd5Y2wLgNf-SEe-78" value="" style="line;strokeWidth=2;direction=south;html=1;" vertex="1" parent="1">
          <mxGeometry x="360" y="1850" width="10" height="40" as="geometry" />
        </mxCell>
        <mxCell id="ws3EkPWd5Y2wLgNf-SEe-79" value="Risk" style="text;html=1;align=center;verticalAlign=middle;resizable=0;points=[];autosize=1;strokeColor=none;fillColor=none;" vertex="1" parent="1">
          <mxGeometry x="305" y="1855" width="50" height="30" as="geometry" />
        </mxCell>
        <mxCell id="ws3EkPWd5Y2wLgNf-SEe-80" value="Strategy" style="text;html=1;align=center;verticalAlign=middle;resizable=0;points=[];autosize=1;strokeColor=none;fillColor=none;" vertex="1" parent="1">
          <mxGeometry x="370" y="1855" width="70" height="30" as="geometry" />
        </mxCell>
        <mxCell id="ws3EkPWd5Y2wLgNf-SEe-81" value="" style="endArrow=classic;html=1;rounded=0;exitX=0.479;exitY=-0.199;exitDx=0;exitDy=0;exitPerimeter=0;edgeStyle=orthogonalEdgeStyle;" edge="1" parent="1" source="ws3EkPWd5Y2wLgNf-SEe-74">
          <mxGeometry width="50" height="50" relative="1" as="geometry">
            <mxPoint x="20" y="1870" as="sourcePoint" />
            <mxPoint x="30" y="1360" as="targetPoint" />
            <Array as="points">
              <mxPoint x="154" y="1820" />
              <mxPoint x="-190" y="1820" />
              <mxPoint x="-190" y="1360" />
              <mxPoint x="28" y="1360" />
            </Array>
          </mxGeometry>
        </mxCell>
        <mxCell id="ws3EkPWd5Y2wLgNf-SEe-82" value="" style="verticalLabelPosition=bottom;verticalAlign=top;html=1;shape=mxgraph.basic.rect;fillColor2=none;strokeWidth=1;size=20;indent=0;container=0;flipV=1;flipH=1;" vertex="1" parent="1">
          <mxGeometry x="65" y="1970" width="295" height="40" as="geometry" />
        </mxCell>
        <mxCell id="ws3EkPWd5Y2wLgNf-SEe-83" value="&lt;b&gt;Report&lt;br&gt;&lt;/b&gt;" style="text;html=1;align=center;verticalAlign=middle;resizable=0;points=[];autosize=1;strokeColor=none;fillColor=none;" vertex="1" parent="1">
          <mxGeometry x="65" y="1940" width="60" height="30" as="geometry" />
        </mxCell>
        <mxCell id="ws3EkPWd5Y2wLgNf-SEe-84" value="&lt;b&gt;&lt;u&gt;ReportID&lt;/u&gt;&lt;/b&gt;" style="text;html=1;align=center;verticalAlign=middle;resizable=0;points=[];autosize=1;strokeColor=none;fillColor=none;" vertex="1" parent="1">
          <mxGeometry x="65" y="1975" width="70" height="30" as="geometry" />
        </mxCell>
        <mxCell id="ws3EkPWd5Y2wLgNf-SEe-85" value="" style="line;strokeWidth=2;direction=south;html=1;" vertex="1" parent="1">
          <mxGeometry x="135" y="1970" width="10" height="40" as="geometry" />
        </mxCell>
        <mxCell id="ws3EkPWd5Y2wLgNf-SEe-86" value="" style="line;strokeWidth=2;direction=south;html=1;" vertex="1" parent="1">
          <mxGeometry x="210" y="1970" width="10" height="40" as="geometry" />
        </mxCell>
        <mxCell id="ws3EkPWd5Y2wLgNf-SEe-87" value="UserID" style="text;html=1;align=center;verticalAlign=middle;resizable=0;points=[];autosize=1;strokeColor=none;fillColor=none;" vertex="1" parent="1">
          <mxGeometry x="145" y="1975" width="60" height="30" as="geometry" />
        </mxCell>
        <mxCell id="ws3EkPWd5Y2wLgNf-SEe-88" value="BotID" style="text;html=1;align=center;verticalAlign=middle;resizable=0;points=[];autosize=1;strokeColor=none;fillColor=none;" vertex="1" parent="1">
          <mxGeometry x="230" y="1975" width="50" height="30" as="geometry" />
        </mxCell>
        <mxCell id="ws3EkPWd5Y2wLgNf-SEe-89" value="" style="verticalLabelPosition=bottom;verticalAlign=top;html=1;shape=mxgraph.basic.rect;fillColor2=none;strokeWidth=1;size=20;indent=0;container=0;flipV=1;flipH=1;" vertex="1" parent="1">
          <mxGeometry x="65" y="2040" width="245" height="40" as="geometry" />
        </mxCell>
        <mxCell id="ws3EkPWd5Y2wLgNf-SEe-90" value="&lt;u style=&quot;&quot;&gt;TransactionID&lt;/u&gt;" style="text;html=1;align=center;verticalAlign=middle;resizable=0;points=[];autosize=1;strokeColor=none;fillColor=none;" vertex="1" parent="1">
          <mxGeometry x="60" y="2045" width="100" height="30" as="geometry" />
        </mxCell>
        <mxCell id="ws3EkPWd5Y2wLgNf-SEe-91" value="" style="line;strokeWidth=2;direction=south;html=1;" vertex="1" parent="1">
          <mxGeometry x="160" y="2040" width="10" height="40" as="geometry" />
        </mxCell>
        <mxCell id="ws3EkPWd5Y2wLgNf-SEe-92" value="" style="line;strokeWidth=2;direction=south;html=1;" vertex="1" parent="1">
          <mxGeometry x="225" y="2040" width="10" height="40" as="geometry" />
        </mxCell>
        <mxCell id="ws3EkPWd5Y2wLgNf-SEe-93" value="&lt;u&gt;BotID&lt;/u&gt;" style="text;html=1;align=center;verticalAlign=middle;resizable=0;points=[];autosize=1;strokeColor=none;fillColor=none;" vertex="1" parent="1">
          <mxGeometry x="170" y="2045" width="50" height="30" as="geometry" />
        </mxCell>
        <mxCell id="ws3EkPWd5Y2wLgNf-SEe-94" value="Notification" style="text;html=1;align=center;verticalAlign=middle;resizable=0;points=[];autosize=1;strokeColor=none;fillColor=none;" vertex="1" parent="1">
          <mxGeometry x="230" y="2045" width="80" height="30" as="geometry" />
        </mxCell>
        <mxCell id="ws3EkPWd5Y2wLgNf-SEe-95" value="&lt;b&gt;MakeTransaction&lt;/b&gt;" style="text;html=1;align=center;verticalAlign=middle;resizable=0;points=[];autosize=1;strokeColor=none;fillColor=none;" vertex="1" parent="1">
          <mxGeometry x="57.5" y="2010" width="120" height="30" as="geometry" />
        </mxCell>
        <mxCell id="ws3EkPWd5Y2wLgNf-SEe-96" value="" style="endArrow=classic;html=1;rounded=0;exitX=0.045;exitY=0.51;exitDx=0;exitDy=0;exitPerimeter=0;edgeStyle=orthogonalEdgeStyle;" edge="1" parent="1" source="ws3EkPWd5Y2wLgNf-SEe-90">
          <mxGeometry width="50" height="50" relative="1" as="geometry">
            <mxPoint x="-30" y="2050" as="sourcePoint" />
            <mxPoint x="149" y="1420" as="targetPoint" />
            <Array as="points">
              <mxPoint x="20" y="2060" />
              <mxPoint x="20" y="2140" />
              <mxPoint x="730" y="2140" />
              <mxPoint x="730" y="1400" />
              <mxPoint x="149" y="1400" />
            </Array>
          </mxGeometry>
        </mxCell>
        <mxCell id="ws3EkPWd5Y2wLgNf-SEe-97" value="" style="endArrow=classic;html=1;rounded=0;edgeStyle=orthogonalEdgeStyle;" edge="1" parent="1">
          <mxGeometry width="50" height="50" relative="1" as="geometry">
            <mxPoint x="199" y="1800" as="sourcePoint" />
            <mxPoint x="98" y="1890" as="targetPoint" />
            <Array as="points">
              <mxPoint x="199" y="1800" />
              <mxPoint x="199" y="1837" />
              <mxPoint x="632" y="1837" />
              <mxPoint x="632" y="1910" />
              <mxPoint x="98" y="1910" />
            </Array>
          </mxGeometry>
        </mxCell>
        <mxCell id="ws3EkPWd5Y2wLgNf-SEe-98" value="" style="line;strokeWidth=2;direction=south;html=1;" vertex="1" parent="1">
          <mxGeometry x="295" y="1970" width="10" height="40" as="geometry" />
        </mxCell>
        <mxCell id="ws3EkPWd5Y2wLgNf-SEe-99" value="Period" style="text;html=1;align=center;verticalAlign=middle;resizable=0;points=[];autosize=1;strokeColor=none;fillColor=none;" vertex="1" parent="1">
          <mxGeometry x="300" y="1975" width="60" height="30" as="geometry" />
        </mxCell>
        <mxCell id="ws3EkPWd5Y2wLgNf-SEe-100" value="" style="endArrow=classic;html=1;rounded=0;exitX=0.624;exitY=1.075;exitDx=0;exitDy=0;exitPerimeter=0;edgeStyle=orthogonalEdgeStyle;" edge="1" parent="1" source="ws3EkPWd5Y2wLgNf-SEe-82">
          <mxGeometry width="50" height="50" relative="1" as="geometry">
            <mxPoint x="-10" y="1980" as="sourcePoint" />
            <mxPoint x="30" y="1347" as="targetPoint" />
            <Array as="points">
              <mxPoint x="176" y="1940" />
              <mxPoint x="-240" y="1940" />
              <mxPoint x="-240" y="1347" />
            </Array>
          </mxGeometry>
        </mxCell>
        <mxCell id="ws3EkPWd5Y2wLgNf-SEe-101" value="" style="endArrow=classic;html=1;rounded=0;exitX=0.344;exitY=1.059;exitDx=0;exitDy=0;exitPerimeter=0;edgeStyle=orthogonalEdgeStyle;entryX=0.009;entryY=0.868;entryDx=0;entryDy=0;entryPerimeter=0;" edge="1" parent="1" source="ws3EkPWd5Y2wLgNf-SEe-82" target="ws3EkPWd5Y2wLgNf-SEe-72">
          <mxGeometry width="50" height="50" relative="1" as="geometry">
            <mxPoint x="520" y="2000" as="sourcePoint" />
            <mxPoint x="60" y="1880" as="targetPoint" />
            <Array as="points">
              <mxPoint x="259" y="1930" />
              <mxPoint x="20" y="1930" />
              <mxPoint x="20" y="1880" />
              <mxPoint x="60" y="1880" />
            </Array>
          </mxGeometry>
        </mxCell>
        <mxCell id="ws3EkPWd5Y2wLgNf-SEe-102" value="" style="endArrow=classic;html=1;rounded=0;edgeStyle=orthogonalEdgeStyle;exitX=0.224;exitY=-0.185;exitDx=0;exitDy=0;exitPerimeter=0;entryX=0.99;entryY=-0.055;entryDx=0;entryDy=0;entryPerimeter=0;" edge="1" parent="1" source="ws3EkPWd5Y2wLgNf-SEe-93" target="ws3EkPWd5Y2wLgNf-SEe-70">
          <mxGeometry width="50" height="50" relative="1" as="geometry">
            <mxPoint x="200" y="2040" as="sourcePoint" />
            <mxPoint x="70" y="1920" as="targetPoint" />
            <Array as="points">
              <mxPoint x="181" y="2020" />
              <mxPoint x="510" y="2020" />
              <mxPoint x="510" y="1920" />
              <mxPoint x="70" y="1920" />
            </Array>
          </mxGeometry>
        </mxCell>
        <mxCell id="ws3EkPWd5Y2wLgNf-SEe-103" value="" style="endArrow=none;html=1;rounded=0;exitX=0.743;exitY=-0.064;exitDx=0;exitDy=0;exitPerimeter=0;edgeStyle=orthogonalEdgeStyle;endFill=0;" edge="1" parent="1" source="ws3EkPWd5Y2wLgNf-SEe-17">
          <mxGeometry width="50" height="50" relative="1" as="geometry">
            <mxPoint x="-10" y="1540" as="sourcePoint" />
            <mxPoint x="-10" y="1590" as="targetPoint" />
            <Array as="points">
              <mxPoint x="218" y="1490" />
              <mxPoint x="-10" y="1490" />
            </Array>
          </mxGeometry>
        </mxCell>
        <mxCell id="ws3EkPWd5Y2wLgNf-SEe-104" value="" style="endArrow=none;html=1;rounded=0;endFill=0;" edge="1" parent="1">
          <mxGeometry width="50" height="50" relative="1" as="geometry">
            <mxPoint x="-10" y="1610" as="sourcePoint" />
            <mxPoint x="-10" y="1810" as="targetPoint" />
          </mxGeometry>
        </mxCell>
        <mxCell id="ws3EkPWd5Y2wLgNf-SEe-105" value="" style="endArrow=classic;html=1;rounded=0;edgeStyle=orthogonalEdgeStyle;entryX=1.007;entryY=0.647;entryDx=0;entryDy=0;entryPerimeter=0;" edge="1" parent="1" target="ws3EkPWd5Y2wLgNf-SEe-70">
          <mxGeometry width="50" height="50" relative="1" as="geometry">
            <mxPoint x="-10" y="1830" as="sourcePoint" />
            <mxPoint x="-10" y="1860" as="targetPoint" />
            <Array as="points">
              <mxPoint x="-10" y="1864" />
            </Array>
          </mxGeometry>
        </mxCell>
      </root>
    </mxGraphModel>
  </diagram>
</mxfile>
